<svg xmlns="http://www.w3.org/2000/svg" width="600" height="600"><path d="M108,669L-2,668L175,675Z" fill="#c6794f" stroke="#c6794f" stroke-width="1.51"/><path d="M309,665L175,675L381,666Z" fill="#c35333" stroke="#c35333" stroke-width="1.51"/><path d="M212,-80L268,-79L545,-77Z" fill="#ffbb7d" stroke="#ffbb7d" stroke-width="1.51"/><path d="M327,-66L454,-49L545,-77Z" fill="#ffa36f" stroke="#ffa36f" stroke-width="1.51"/><path d="M268,-79L327,-66L545,-77Z" fill="#ffb178" stroke="#ffb178" stroke-width="1.51"/><path d="M506,667L381,666L557,673Z" fill="#b71224" stroke="#b71224" stroke-width="1.51"/><path d="M381,666L175,675L557,673Z" fill="#c1372c" stroke="#c1372c" stroke-width="1.51"/><path d="M615,419L610,481L650,415Z" fill="#cb2326" stroke="#cb2326" stroke-width="1.51"/><path d="M650,415L610,481L657,505Z" fill="#c31824" stroke="#c31824" stroke-width="1.51"/><path d="M646,274L642,312L663,362Z" fill="#c94d30" stroke="#c94d30" stroke-width="1.51"/><path d="M650,415L657,505L663,362Z" fill="#c22427" stroke="#c22427" stroke-width="1.51"/><path d="M657,505L588,542L668,566Z" fill="#b70624" stroke="#b70624" stroke-width="1.51"/><path d="M663,362L657,505L668,566Z" fill="#ba1324" stroke="#ba1324" stroke-width="1.51"/><path d="M594,648L557,673L668,671Z" fill="#9f0026" stroke="#9f0026" stroke-width="1.51"/><path d="M640,597L594,648L668,671Z" fill="#9e0026" stroke="#9e0026" stroke-width="1.51"/><path d="M668,566L640,597L668,671Z" fill="#9f0026" stroke="#9f0026" stroke-width="1.51"/><path d="M617,254L646,274L672,221Z" fill="#cc5d35" stroke="#cc5d35" stroke-width="1.51"/><path d="M653,34L639,119L672,221Z" fill="#cb7649" stroke="#cb7649" stroke-width="1.51"/><path d="M639,119L641,175L672,221Z" fill="#cb6d3f" stroke="#cb6d3f" stroke-width="1.51"/><path d="M646,274L663,362L672,221Z" fill="#c65433" stroke="#c65433" stroke-width="1.51"/><path d="M663,362L668,566L672,221Z" fill="#c2322b" stroke="#c2322b" stroke-width="1.51"/><path d="M545,-77L617,-48L674,-40Z" fill="#df8e6d" stroke="#df8e6d" stroke-width="1.51"/><path d="M617,-48L652,-3L674,-40Z" fill="#d18868" stroke="#d18868" stroke-width="1.51"/><path d="M653,34L672,221L674,-40Z" fill="#c97c53" stroke="#c97c53" stroke-width="1.51"/><path d="M652,-3L653,34L674,-40Z" fill="#cd8562" stroke="#cd8562" stroke-width="1.51"/><path d="M580,90L639,119L653,34Z" fill="#d78051" stroke="#d78051" stroke-width="1.51"/><path d="M586,44L580,90L653,34Z" fill="#de8556" stroke="#de8556" stroke-width="1.51"/><path d="M642,312L616,338L663,362Z" fill="#cc462e" stroke="#cc462e" stroke-width="1.51"/><path d="M612,401L650,415L663,362Z" fill="#cb2f2a" stroke="#cb2f2a" stroke-width="1.51"/><path d="M641,175L617,254L672,221Z" fill="#cd6438" stroke="#cd6438" stroke-width="1.51"/><path d="M587,204L617,254L641,175Z" fill="#d66838" stroke="#d66838" stroke-width="1.51"/><path d="M588,542L640,597L668,566Z" fill="#b30325" stroke="#b30325" stroke-width="1.51"/><path d="M617,-48L624,0L652,-3Z" fill="#d78965" stroke="#d78965" stroke-width="1.51"/><path d="M616,338L612,401L663,362Z" fill="#cf3b2b" stroke="#cf3b2b" stroke-width="1.51"/><path d="M652,-3L624,0L653,34Z" fill="#d2855f" stroke="#d2855f" stroke-width="1.51"/><path d="M610,481L588,542L657,505Z" fill="#c30b23" stroke="#c30b23" stroke-width="1.51"/><path d="M588,542L582,580L640,597Z" fill="#bb0226" stroke="#bb0226" stroke-width="1.51"/><path d="M624,0L586,44L653,34Z" fill="#d9865c" stroke="#d9865c" stroke-width="1.51"/><path d="M639,119L582,170L641,175Z" fill="#d67443" stroke="#d67443" stroke-width="1.51"/><path d="M612,401L615,419L650,415Z" fill="#ce2a28" stroke="#ce2a28" stroke-width="1.51"/><path d="M617,254L642,312L646,274Z" fill="#ce5833" stroke="#ce5833" stroke-width="1.51"/><path d="M582,580L594,648L640,597Z" fill="#b10026" stroke="#b10026" stroke-width="1.51"/><path d="M582,170L587,204L641,175Z" fill="#db6f3c" stroke="#db6f3c" stroke-width="1.51"/><path d="M617,254L616,338L642,312Z" fill="#d25331" stroke="#d25331" stroke-width="1.51"/><path d="M551,277L616,338L617,254Z" fill="#dc5932" stroke="#dc5932" stroke-width="1.51"/><path d="M580,90L582,170L639,119Z" fill="#dd7c48" stroke="#dd7c48" stroke-width="1.51"/><path d="M582,580L562,622L594,648Z" fill="#b60126" stroke="#b60126" stroke-width="1.51"/><path d="M566,440L610,481L615,419Z" fill="#d32125" stroke="#d32125" stroke-width="1.51"/><path d="M551,277L539,318L616,338Z" fill="#e2552f" stroke="#e2552f" stroke-width="1.51"/><path d="M565,377L612,401L616,338Z" fill="#da3b2b" stroke="#da3b2b" stroke-width="1.51"/><path d="M617,-48L541,3L624,0Z" fill="#e48d64" stroke="#e48d64" stroke-width="1.51"/><path d="M541,3L586,44L624,0Z" fill="#e68b5e" stroke="#e68b5e" stroke-width="1.51"/><path d="M545,500L588,542L610,481Z" fill="#ce0d22" stroke="#ce0d22" stroke-width="1.51"/><path d="M545,-77L541,3L617,-48Z" fill="#eb9269" stroke="#eb9269" stroke-width="1.51"/><path d="M587,204L564,216L617,254Z" fill="#df6836" stroke="#df6836" stroke-width="1.51"/><path d="M564,216L551,277L617,254Z" fill="#e16434" stroke="#e16434" stroke-width="1.51"/><path d="M539,318L565,377L616,338Z" fill="#e0492c" stroke="#e0492c" stroke-width="1.51"/><path d="M612,401L566,440L615,419Z" fill="#d62927" stroke="#d62927" stroke-width="1.51"/><path d="M565,377L566,440L612,401Z" fill="#dc2e27" stroke="#dc2e27" stroke-width="1.51"/><path d="M566,440L545,500L610,481Z" fill="#d51923" stroke="#d51923" stroke-width="1.51"/><path d="M580,90L527,100L582,170Z" fill="#e78148" stroke="#e78148" stroke-width="1.51"/><path d="M527,100L536,170L582,170Z" fill="#ea7c41" stroke="#ea7c41" stroke-width="1.51"/><path d="M538,57L580,90L586,44Z" fill="#e88853" stroke="#e88853" stroke-width="1.51"/><path d="M545,500L546,530L588,542Z" fill="#cf0e22" stroke="#cf0e22" stroke-width="1.51"/><path d="M562,622L557,673L594,648Z" fill="#ad0226" stroke="#ad0226" stroke-width="1.51"/><path d="M541,3L538,57L586,44Z" fill="#eb8c59" stroke="#eb8c59" stroke-width="1.51"/><path d="M582,170L564,216L587,204Z" fill="#e26f39" stroke="#e26f39" stroke-width="1.51"/><path d="M546,530L582,580L588,542Z" fill="#c80824" stroke="#c80824" stroke-width="1.51"/><path d="M536,170L564,216L582,170Z" fill="#e6733b" stroke="#e6733b" stroke-width="1.51"/><path d="M497,548L562,622L582,580Z" fill="#c60624" stroke="#c60624" stroke-width="1.51"/><path d="M546,530L497,548L582,580Z" fill="#cd0d23" stroke="#cd0d23" stroke-width="1.51"/><path d="M538,57L527,100L580,90Z" fill="#ec874e" stroke="#ec874e" stroke-width="1.51"/><path d="M527,100L506,158L536,170Z" fill="#ef8041" stroke="#ef8041" stroke-width="1.51"/><path d="M497,548L484,619L562,622Z" fill="#c90b23" stroke="#c90b23" stroke-width="1.51"/><path d="M506,667L557,673L562,622Z" fill="#b10625" stroke="#b10625" stroke-width="1.51"/><path d="M502,218L551,277L564,216Z" fill="#e96933" stroke="#e96933" stroke-width="1.51"/><path d="M536,170L502,218L564,216Z" fill="#ea7136" stroke="#ea7136" stroke-width="1.51"/><path d="M539,318L494,391L565,377Z" fill="#e84428" stroke="#e84428" stroke-width="1.51"/><path d="M472,445L545,500L566,440Z" fill="#e02220" stroke="#e02220" stroke-width="1.51"/><path d="M494,391L472,445L566,440Z" fill="#e82f22" stroke="#e82f22" stroke-width="1.51"/><path d="M565,377L494,391L566,440Z" fill="#e43226" stroke="#e43226" stroke-width="1.51"/><path d="M471,-37L541,3L545,-77Z" fill="#f59666" stroke="#f59666" stroke-width="1.51"/><path d="M484,619L506,667L562,622Z" fill="#bc0923" stroke="#bc0923" stroke-width="1.51"/><path d="M497,10L509,58L538,57Z" fill="#f48f56" stroke="#f48f56" stroke-width="1.51"/><path d="M475,323L494,391L539,318Z" fill="#ee4e27" stroke="#ee4e27" stroke-width="1.51"/><path d="M497,10L538,57L541,3Z" fill="#f2905a" stroke="#f2905a" stroke-width="1.51"/><path d="M471,-37L497,10L541,3Z" fill="#f8955f" stroke="#f8955f" stroke-width="1.51"/><path d="M472,445L473,499L545,500Z" fill="#e31e1d" stroke="#e31e1d" stroke-width="1.51"/><path d="M474,279L539,318L551,277Z" fill="#ec5e2e" stroke="#ec5e2e" stroke-width="1.51"/><path d="M502,218L474,279L551,277Z" fill="#ef672f" stroke="#ef672f" stroke-width="1.51"/><path d="M509,58L527,100L538,57Z" fill="#f18b50" stroke="#f18b50" stroke-width="1.51"/><path d="M473,499L497,548L545,500Z" fill="#dc161f" stroke="#dc161f" stroke-width="1.51"/><path d="M545,500L497,548L546,530Z" fill="#d51221" stroke="#d51221" stroke-width="1.51"/><path d="M327,-66L369,-46L454,-49Z" fill="#ffad73" stroke="#ffad73" stroke-width="1.51"/><path d="M454,-49L471,-37L545,-77Z" fill="#fc9b69" stroke="#fc9b69" stroke-width="1.51"/><path d="M506,158L502,218L536,170Z" fill="#ef7839" stroke="#ef7839" stroke-width="1.51"/><path d="M474,279L475,323L539,318Z" fill="#f15c2b" stroke="#f15c2b" stroke-width="1.51"/><path d="M476,120L506,158L527,100Z" fill="#f48543" stroke="#f48543" stroke-width="1.51"/><path d="M509,58L476,120L527,100Z" fill="#f48a4b" stroke="#f48a4b" stroke-width="1.51"/><path d="M422,593L484,619L497,548Z" fill="#d31a23" stroke="#d31a23" stroke-width="1.51"/><path d="M451,167L502,218L506,158Z" fill="#f57b38" stroke="#f57b38" stroke-width="1.51"/><path d="M435,636L381,666L506,667Z" fill="#c12026" stroke="#c12026" stroke-width="1.51"/><path d="M497,10L422,38L509,58Z" fill="#fb9457" stroke="#fb9457" stroke-width="1.51"/><path d="M422,38L476,120L509,58Z" fill="#fa9150" stroke="#fa9150" stroke-width="1.51"/><path d="M423,556L422,593L497,548Z" fill="#da2423" stroke="#da2423" stroke-width="1.51"/><path d="M425,215L474,279L502,218Z" fill="#f67232" stroke="#f67232" stroke-width="1.51"/><path d="M476,120L451,167L506,158Z" fill="#f7843f" stroke="#f7843f" stroke-width="1.51"/><path d="M484,619L435,636L506,667Z" fill="#c11523" stroke="#c11523" stroke-width="1.51"/><path d="M475,323L440,402L494,391Z" fill="#f34826" stroke="#f34826" stroke-width="1.51"/><path d="M440,402L472,445L494,391Z" fill="#f13a23" stroke="#f13a23" stroke-width="1.51"/><path d="M429,7L422,38L497,10Z" fill="#fe9b5d" stroke="#fe9b5d" stroke-width="1.51"/><path d="M473,499L452,510L497,548Z" fill="#e01f1f" stroke="#e01f1f" stroke-width="1.51"/><path d="M451,167L425,215L502,218Z" fill="#f87b36" stroke="#f87b36" stroke-width="1.51"/><path d="M422,38L448,128L476,120Z" fill="#fc934c" stroke="#fc934c" stroke-width="1.51"/><path d="M471,-37L429,7L497,10Z" fill="#fd9a61" stroke="#fd9a61" stroke-width="1.51"/><path d="M452,510L423,556L497,548Z" fill="#de2321" stroke="#de2321" stroke-width="1.51"/><path d="M424,324L440,402L475,323Z" fill="#f6562a" stroke="#f6562a" stroke-width="1.51"/><path d="M448,128L451,167L476,120Z" fill="#fa8943" stroke="#fa8943" stroke-width="1.51"/><path d="M425,215L425,279L474,279Z" fill="#f87232" stroke="#f87232" stroke-width="1.51"/><path d="M422,593L435,636L484,619Z" fill="#cd2025" stroke="#cd2025" stroke-width="1.51"/><path d="M422,38L390,89L448,128Z" fill="#ff9951" stroke="#ff9951" stroke-width="1.51"/><path d="M454,-49L429,7L471,-37Z" fill="#ff9f67" stroke="#ff9f67" stroke-width="1.51"/><path d="M423,439L452,510L472,445Z" fill="#ec3221" stroke="#ec3221" stroke-width="1.51"/><path d="M440,402L423,439L472,445Z" fill="#f23c24" stroke="#f23c24" stroke-width="1.51"/><path d="M472,445L452,510L473,499Z" fill="#e8271e" stroke="#e8271e" stroke-width="1.51"/><path d="M474,279L425,279L475,323Z" fill="#f6672e" stroke="#f6672e" stroke-width="1.51"/><path d="M425,279L424,324L475,323Z" fill="#f7652e" stroke="#f7652e" stroke-width="1.51"/><path d="M393,61L390,89L422,38Z" fill="#ff9e58" stroke="#ff9e58" stroke-width="1.51"/><path d="M424,324L374,383L440,402Z" fill="#fb552b" stroke="#fb552b" stroke-width="1.51"/><path d="M448,128L386,156L451,167Z" fill="#fd8c43" stroke="#fd8c43" stroke-width="1.51"/><path d="M423,439L391,507L452,510Z" fill="#ed3421" stroke="#ed3421" stroke-width="1.51"/><path d="M391,507L423,556L452,510Z" fill="#e52f23" stroke="#e52f23" stroke-width="1.51"/><path d="M369,-46L429,7L454,-49Z" fill="#ffa56b" stroke="#ffa56b" stroke-width="1.51"/><path d="M386,156L425,215L451,167Z" fill="#fd863d" stroke="#fd863d" stroke-width="1.51"/><path d="M390,89L386,156L448,128Z" fill="#ff944a" stroke="#ff944a" stroke-width="1.51"/><path d="M8,-72L165,-67L212,-80Z" fill="#ffe79a" stroke="#ffe79a" stroke-width="1.51"/><path d="M386,156L375,197L425,215Z" fill="#ff893d" stroke="#ff893d" stroke-width="1.51"/><path d="M369,-46L386,9L429,7Z" fill="#ffa668" stroke="#ffa668" stroke-width="1.51"/><path d="M375,421L423,439L440,402Z" fill="#f74527" stroke="#f74527" stroke-width="1.51"/><path d="M374,383L375,421L440,402Z" fill="#fc4d29" stroke="#fc4d29" stroke-width="1.51"/><path d="M369,589L381,666L422,593Z" fill="#d33129" stroke="#d33129" stroke-width="1.51"/><path d="M391,507L381,532L423,556Z" fill="#e73425" stroke="#e73425" stroke-width="1.51"/><path d="M425,215L361,277L425,279Z" fill="#fd7935" stroke="#fd7935" stroke-width="1.51"/><path d="M422,593L381,666L435,636Z" fill="#cc2928" stroke="#cc2928" stroke-width="1.51"/><path d="M375,421L391,507L423,439Z" fill="#f54125" stroke="#f54125" stroke-width="1.51"/><path d="M370,318L374,383L424,324Z" fill="#fd652f" stroke="#fd652f" stroke-width="1.51"/><path d="M375,197L361,277L425,215Z" fill="#fe8239" stroke="#fe8239" stroke-width="1.51"/><path d="M370,318L424,324L425,279Z" fill="#fc6c31" stroke="#fc6c31" stroke-width="1.51"/><path d="M386,9L422,38L429,7Z" fill="#ffa161" stroke="#ffa161" stroke-width="1.51"/><path d="M369,589L422,593L423,556Z" fill="#dd2f27" stroke="#dd2f27" stroke-width="1.51"/><path d="M361,277L370,318L425,279Z" fill="#fd7634" stroke="#fd7634" stroke-width="1.51"/><path d="M381,532L369,589L423,556Z" fill="#e23527" stroke="#e23527" stroke-width="1.51"/><path d="M8,-72L33,-66L165,-67Z" fill="#ffeea6" stroke="#ffeea6" stroke-width="1.51"/><path d="M386,9L393,61L422,38Z" fill="#ffa15d" stroke="#ffa15d" stroke-width="1.51"/><path d="M315,593L309,665L369,589Z" fill="#d44a2f" stroke="#d44a2f" stroke-width="1.51"/><path d="M344,202L361,277L375,197Z" fill="#fe8b3c" stroke="#fe8b3c" stroke-width="1.51"/><path d="M369,589L309,665L381,666Z" fill="#cc402d" stroke="#cc402d" stroke-width="1.51"/><path d="M336,97L386,156L390,89Z" fill="#ff9f50" stroke="#ff9f50" stroke-width="1.51"/><path d="M375,421L350,427L391,507Z" fill="#f64c28" stroke="#f64c28" stroke-width="1.51"/><path d="M350,427L307,511L391,507Z" fill="#f24f28" stroke="#f24f28" stroke-width="1.51"/><path d="M386,9L324,64L393,61Z" fill="#ffa85f" stroke="#ffa85f" stroke-width="1.51"/><path d="M336,97L390,89L393,61Z" fill="#ffa356" stroke="#ffa356" stroke-width="1.51"/><path d="M324,64L336,97L393,61Z" fill="#ffaa5b" stroke="#ffaa5b" stroke-width="1.51"/><path d="M370,318L321,334L374,383Z" fill="#fd6f32" stroke="#fd6f32" stroke-width="1.51"/><path d="M369,-46L318,-25L386,9Z" fill="#ffb16f" stroke="#ffb16f" stroke-width="1.51"/><path d="M336,97L324,162L386,156Z" fill="#ffa14d" stroke="#ffa14d" stroke-width="1.51"/><path d="M307,511L381,532L391,507Z" fill="#eb4728" stroke="#eb4728" stroke-width="1.51"/><path d="M319,557L369,589L381,532Z" fill="#e3452b" stroke="#e3452b" stroke-width="1.51"/><path d="M344,202L318,266L361,277Z" fill="#fe8c3c" stroke="#fe8c3c" stroke-width="1.51"/><path d="M324,162L344,202L375,197Z" fill="#ff9743" stroke="#ff9743" stroke-width="1.51"/><path d="M318,-25L324,64L386,9Z" fill="#ffb268" stroke="#ffb268" stroke-width="1.51"/><path d="M324,162L375,197L386,156Z" fill="#ff9644" stroke="#ff9644" stroke-width="1.51"/><path d="M321,334L318,374L374,383Z" fill="#fd6f32" stroke="#fd6f32" stroke-width="1.51"/><path d="M374,383L350,427L375,421Z" fill="#fb572b" stroke="#fb572b" stroke-width="1.51"/><path d="M307,511L319,557L381,532Z" fill="#e84f2b" stroke="#e84f2b" stroke-width="1.51"/><path d="M318,-25L288,4L324,64Z" fill="#ffbb6c" stroke="#ffbb6c" stroke-width="1.51"/><path d="M318,374L350,427L374,383Z" fill="#fd612e" stroke="#fd612e" stroke-width="1.51"/><path d="M319,557L315,593L369,589Z" fill="#df4c2d" stroke="#df4c2d" stroke-width="1.51"/><path d="M361,277L321,334L370,318Z" fill="#fd7b36" stroke="#fd7b36" stroke-width="1.51"/><path d="M327,-66L318,-25L369,-46Z" fill="#ffb977" stroke="#ffb977" stroke-width="1.51"/><path d="M293,611L309,665L315,593Z" fill="#d25231" stroke="#d25231" stroke-width="1.51"/><path d="M318,266L321,334L361,277Z" fill="#fd8539" stroke="#fd8539" stroke-width="1.51"/><path d="M268,216L318,266L344,202Z" fill="#fe9841" stroke="#fe9841" stroke-width="1.51"/><path d="M290,510L307,511L350,427Z" fill="#f25c2a" stroke="#f25c2a" stroke-width="1.51"/><path d="M250,426L290,510L350,427Z" fill="#f6672e" stroke="#f6672e" stroke-width="1.51"/><path d="M318,374L250,426L350,427Z" fill="#fc6d31" stroke="#fc6d31" stroke-width="1.51"/><path d="M294,160L324,162L336,97Z" fill="#ffa950" stroke="#ffa950" stroke-width="1.51"/><path d="M324,162L294,160L344,202Z" fill="#ffa048" stroke="#ffa048" stroke-width="1.51"/><path d="M294,160L268,216L344,202Z" fill="#fea246" stroke="#fea246" stroke-width="1.51"/><path d="M287,74L254,102L294,160Z" fill="#ffb75a" stroke="#ffb75a" stroke-width="1.51"/><path d="M284,648L175,675L309,665Z" fill="#c65a35" stroke="#c65a35" stroke-width="1.51"/><path d="M293,611L284,648L309,665Z" fill="#cc5432" stroke="#cc5432" stroke-width="1.51"/><path d="M318,266L290,341L321,334Z" fill="#fd8639" stroke="#fd8639" stroke-width="1.51"/><path d="M324,64L287,74L336,97Z" fill="#ffb35e" stroke="#ffb35e" stroke-width="1.51"/><path d="M287,74L294,160L336,97Z" fill="#ffb258" stroke="#ffb258" stroke-width="1.51"/><path d="M250,426L236,481L290,510Z" fill="#f56c30" stroke="#f56c30" stroke-width="1.51"/><path d="M260,275L290,341L318,266Z" fill="#fd903d" stroke="#fd903d" stroke-width="1.51"/><path d="M253,371L250,426L318,374Z" fill="#fe7835" stroke="#fe7835" stroke-width="1.51"/><path d="M290,341L318,374L321,334Z" fill="#fd7b36" stroke="#fd7b36" stroke-width="1.51"/><path d="M288,4L287,74L324,64Z" fill="#ffba66" stroke="#ffba66" stroke-width="1.51"/><path d="M268,-79L318,-25L327,-66Z" fill="#ffc37d" stroke="#ffc37d" stroke-width="1.51"/><path d="M290,510L273,551L307,511Z" fill="#eb5f2e" stroke="#eb5f2e" stroke-width="1.51"/><path d="M307,511L273,551L319,557Z" fill="#e75b2e" stroke="#e75b2e" stroke-width="1.51"/><path d="M268,216L260,275L318,266Z" fill="#fe9a41" stroke="#fe9a41" stroke-width="1.51"/><path d="M273,551L315,593L319,557Z" fill="#e25830" stroke="#e25830" stroke-width="1.51"/><path d="M268,-79L288,4L318,-25Z" fill="#ffc378" stroke="#ffc378" stroke-width="1.51"/><path d="M290,341L253,371L318,374Z" fill="#fd7d37" stroke="#fd7d37" stroke-width="1.51"/><path d="M273,551L293,611L315,593Z" fill="#de5931" stroke="#de5931" stroke-width="1.51"/><path d="M199,637L175,675L284,648Z" fill="#ca6238" stroke="#ca6238" stroke-width="1.51"/><path d="M268,-79L215,-14L288,4Z" fill="#ffca7b" stroke="#ffca7b" stroke-width="1.51"/><path d="M238,74L287,74L288,4Z" fill="#ffbf68" stroke="#ffbf68" stroke-width="1.51"/><path d="M260,275L216,349L290,341Z" fill="#fe8f3d" stroke="#fe8f3d" stroke-width="1.51"/><path d="M210,618L284,648L293,611Z" fill="#d25c34" stroke="#d25c34" stroke-width="1.51"/><path d="M273,551L210,618L293,611Z" fill="#dd6034" stroke="#dd6034" stroke-width="1.51"/><path d="M216,169L268,216L294,160Z" fill="#feac4c" stroke="#feac4c" stroke-width="1.51"/><path d="M254,102L216,169L294,160Z" fill="#ffb554" stroke="#ffb554" stroke-width="1.51"/><path d="M215,-14L238,74L288,4Z" fill="#ffc771" stroke="#ffc771" stroke-width="1.51"/><path d="M236,481L273,551L290,510Z" fill="#ed652f" stroke="#ed652f" stroke-width="1.51"/><path d="M216,349L253,371L290,341Z" fill="#fe873b" stroke="#fe873b" stroke-width="1.51"/><path d="M238,74L254,102L287,74Z" fill="#ffbe62" stroke="#ffbe62" stroke-width="1.51"/><path d="M200,558L210,618L273,551Z" fill="#e26836" stroke="#e26836" stroke-width="1.51"/><path d="M210,618L199,637L284,648Z" fill="#d06237" stroke="#d06237" stroke-width="1.51"/><path d="M222,274L216,349L260,275Z" fill="#fe9a41" stroke="#fe9a41" stroke-width="1.51"/><path d="M212,-80L215,-14L268,-79Z" fill="#ffd183" stroke="#ffd183" stroke-width="1.51"/><path d="M222,274L260,275L268,216Z" fill="#fea043" stroke="#fea043" stroke-width="1.51"/><path d="M236,481L200,558L273,551Z" fill="#eb6a32" stroke="#eb6a32" stroke-width="1.51"/><path d="M229,430L236,481L250,426Z" fill="#f87534" stroke="#f87534" stroke-width="1.51"/><path d="M199,203L222,274L268,216Z" fill="#fea848" stroke="#fea848" stroke-width="1.51"/><path d="M216,169L199,203L268,216Z" fill="#feaf4b" stroke="#feaf4b" stroke-width="1.51"/><path d="M229,430L250,426L253,371Z" fill="#fd7b36" stroke="#fd7b36" stroke-width="1.51"/><path d="M199,403L229,430L253,371Z" fill="#fe7f38" stroke="#fe7f38" stroke-width="1.51"/><path d="M208,90L216,169L254,102Z" fill="#ffbf5c" stroke="#ffbf5c" stroke-width="1.51"/><path d="M215,-14L155,53L238,74Z" fill="#ffcd71" stroke="#ffcd71" stroke-width="1.51"/><path d="M216,349L199,403L253,371Z" fill="#ff883b" stroke="#ff883b" stroke-width="1.51"/><path d="M238,74L208,90L254,102Z" fill="#ffc263" stroke="#ffc263" stroke-width="1.51"/><path d="M165,528L200,558L236,481Z" fill="#ed7235" stroke="#ed7235" stroke-width="1.51"/><path d="M174,290L216,349L222,274Z" fill="#fe9f43" stroke="#fe9f43" stroke-width="1.51"/><path d="M229,430L165,434L236,481Z" fill="#f97b35" stroke="#f97b35" stroke-width="1.51"/><path d="M155,53L208,90L238,74Z" fill="#ffca6a" stroke="#ffca6a" stroke-width="1.51"/><path d="M148,8L155,53L215,-14Z" fill="#ffd57c" stroke="#ffd57c" stroke-width="1.51"/><path d="M208,90L159,163L216,169Z" fill="#ffc15c" stroke="#ffc15c" stroke-width="1.51"/><path d="M165,434L150,504L236,481Z" fill="#f67c38" stroke="#f67c38" stroke-width="1.51"/><path d="M150,504L165,528L236,481Z" fill="#f17838" stroke="#f17838" stroke-width="1.51"/><path d="M200,558L170,597L210,618Z" fill="#df6e3a" stroke="#df6e3a" stroke-width="1.51"/><path d="M212,-80L165,-67L215,-14Z" fill="#ffd787" stroke="#ffd787" stroke-width="1.51"/><path d="M174,290L163,330L216,349Z" fill="#fe9e46" stroke="#fe9e46" stroke-width="1.51"/><path d="M199,203L174,290L222,274Z" fill="#fea948" stroke="#fea948" stroke-width="1.51"/><path d="M199,403L165,434L229,430Z" fill="#fc8239" stroke="#fc8239" stroke-width="1.51"/><path d="M164,88L159,163L208,90Z" fill="#ffca66" stroke="#ffca66" stroke-width="1.51"/><path d="M180,399L199,403L216,349Z" fill="#ff8a3c" stroke="#ff8a3c" stroke-width="1.51"/><path d="M146,196L174,290L199,203Z" fill="#ffb451" stroke="#ffb451" stroke-width="1.51"/><path d="M155,53L164,88L208,90Z" fill="#ffce6e" stroke="#ffce6e" stroke-width="1.51"/><path d="M165,-67L148,8L215,-14Z" fill="#ffd884" stroke="#ffd884" stroke-width="1.51"/><path d="M159,163L199,203L216,169Z" fill="#feba54" stroke="#feba54" stroke-width="1.51"/><path d="M163,330L180,399L216,349Z" fill="#ff9342" stroke="#ff9342" stroke-width="1.51"/><path d="M170,597L199,637L210,618Z" fill="#d66c3b" stroke="#d66c3b" stroke-width="1.51"/><path d="M180,399L165,434L199,403Z" fill="#fe873e" stroke="#fe873e" stroke-width="1.51"/><path d="M159,163L146,196L199,203Z" fill="#ffbd58" stroke="#ffbd58" stroke-width="1.51"/><path d="M165,528L170,597L200,558Z" fill="#e6743c" stroke="#e6743c" stroke-width="1.51"/><path d="M146,196L99,251L174,290Z" fill="#ffb756" stroke="#ffb756" stroke-width="1.51"/><path d="M170,597L175,675L199,637Z" fill="#d06c3d" stroke="#d06c3d" stroke-width="1.51"/><path d="M115,323L92,402L163,330Z" fill="#ffa350" stroke="#ffa350" stroke-width="1.51"/><path d="M96,128L159,163L164,88Z" fill="#ffcf6b" stroke="#ffcf6b" stroke-width="1.51"/><path d="M33,-66L96,-36L165,-67Z" fill="#ffea9d" stroke="#ffea9d" stroke-width="1.51"/><path d="M96,-36L148,8L165,-67Z" fill="#ffe18f" stroke="#ffe18f" stroke-width="1.51"/><path d="M165,528L124,533L170,597Z" fill="#e97b40" stroke="#e97b40" stroke-width="1.51"/><path d="M170,597L115,623L175,675Z" fill="#d27343" stroke="#d27343" stroke-width="1.51"/><path d="M115,623L108,669L175,675Z" fill="#cb7447" stroke="#cb7447" stroke-width="1.51"/><path d="M163,330L92,402L180,399Z" fill="#ff9749" stroke="#ff9749" stroke-width="1.51"/><path d="M115,433L165,434L180,399Z" fill="#fd8c43" stroke="#fd8c43" stroke-width="1.51"/><path d="M92,402L115,433L180,399Z" fill="#ff9349" stroke="#ff9349" stroke-width="1.51"/><path d="M115,433L150,504L165,434Z" fill="#fa8842" stroke="#fa8842" stroke-width="1.51"/><path d="M115,323L163,330L174,290Z" fill="#ffa74e" stroke="#ffa74e" stroke-width="1.51"/><path d="M99,251L115,323L174,290Z" fill="#ffb255" stroke="#ffb255" stroke-width="1.51"/><path d="M126,195L99,251L146,196Z" fill="#ffc05d" stroke="#ffc05d" stroke-width="1.51"/><path d="M124,533L115,623L170,597Z" fill="#e37b45" stroke="#e37b45" stroke-width="1.51"/><path d="M115,433L96,497L150,504Z" fill="#f88a45" stroke="#f88a45" stroke-width="1.51"/><path d="M155,53L108,67L164,88Z" fill="#ffd677" stroke="#ffd677" stroke-width="1.51"/><path d="M108,67L96,128L164,88Z" fill="#fed776" stroke="#fed776" stroke-width="1.51"/><path d="M150,504L124,533L165,528Z" fill="#ef7f40" stroke="#ef7f40" stroke-width="1.51"/><path d="M148,8L108,67L155,53Z" fill="#ffd97e" stroke="#ffd97e" stroke-width="1.51"/><path d="M126,195L146,196L159,163Z" fill="#ffc25d" stroke="#ffc25d" stroke-width="1.51"/><path d="M96,128L126,195L159,163Z" fill="#ffca66" stroke="#ffca66" stroke-width="1.51"/><path d="M96,128L90,182L126,195Z" fill="#ffcd6a" stroke="#ffcd6a" stroke-width="1.51"/><path d="M86,12L108,67L148,8Z" fill="#ffdf86" stroke="#ffdf86" stroke-width="1.51"/><path d="M62,581L115,623L124,533Z" fill="#e5834c" stroke="#e5834c" stroke-width="1.51"/><path d="M96,-36L86,12L148,8Z" fill="#ffe48f" stroke="#ffe48f" stroke-width="1.51"/><path d="M96,497L124,533L150,504Z" fill="#f28544" stroke="#f28544" stroke-width="1.51"/><path d="M61,649L-2,668L108,669Z" fill="#ca7e56" stroke="#ca7e56" stroke-width="1.51"/><path d="M67,393L92,402L115,323Z" fill="#ffa254" stroke="#ffa254" stroke-width="1.51"/><path d="M99,251L63,269L115,323Z" fill="#ffb95e" stroke="#ffb95e" stroke-width="1.51"/><path d="M90,182L99,251L126,195Z" fill="#ffc561" stroke="#ffc561" stroke-width="1.51"/><path d="M90,182L56,209L99,251Z" fill="#ffc666" stroke="#ffc666" stroke-width="1.51"/><path d="M43,528L62,581L124,533Z" fill="#ec8850" stroke="#ec8850" stroke-width="1.51"/><path d="M60,507L43,528L124,533Z" fill="#f18b4f" stroke="#f18b4f" stroke-width="1.51"/><path d="M96,497L60,507L124,533Z" fill="#f28a4b" stroke="#f28a4b" stroke-width="1.51"/><path d="M68,164L90,182L96,128Z" fill="#ffd270" stroke="#ffd270" stroke-width="1.51"/><path d="M68,70L96,128L108,67Z" fill="#fedd7d" stroke="#fedd7d" stroke-width="1.51"/><path d="M86,12L68,70L108,67Z" fill="#ffe187" stroke="#ffe187" stroke-width="1.51"/><path d="M43,450L96,497L115,433Z" fill="#fb924e" stroke="#fb924e" stroke-width="1.51"/><path d="M92,402L43,450L115,433Z" fill="#ff9751" stroke="#ff9751" stroke-width="1.51"/><path d="M45,307L67,393L115,323Z" fill="#ffad5b" stroke="#ffad5b" stroke-width="1.51"/><path d="M63,269L45,307L115,323Z" fill="#ffb760" stroke="#ffb760" stroke-width="1.51"/><path d="M61,649L108,669L115,623Z" fill="#ce7c4f" stroke="#ce7c4f" stroke-width="1.51"/><path d="M62,581L61,649L115,623Z" fill="#d98151" stroke="#d98151" stroke-width="1.51"/><path d="M68,70L51,109L96,128Z" fill="#ffdd7f" stroke="#ffdd7f" stroke-width="1.51"/><path d="M67,393L43,450L92,402Z" fill="#ff9b56" stroke="#ff9b56" stroke-width="1.51"/><path d="M50,-8L86,12L96,-36Z" fill="#ffe897" stroke="#ffe897" stroke-width="1.51"/><path d="M43,450L60,507L96,497Z" fill="#f99050" stroke="#f99050" stroke-width="1.51"/><path d="M56,209L63,269L99,251Z" fill="#ffc265" stroke="#ffc265" stroke-width="1.51"/><path d="M51,109L68,164L96,128Z" fill="#ffd779" stroke="#ffd779" stroke-width="1.51"/><path d="M33,-66L50,-8L96,-36Z" fill="#ffeca1" stroke="#ffeca1" stroke-width="1.51"/><path d="M50,-8L68,70L86,12Z" fill="#ffe591" stroke="#ffe591" stroke-width="1.51"/><path d="M68,164L56,209L90,182Z" fill="#ffcd6d" stroke="#ffcd6d" stroke-width="1.51"/><path d="M45,307L-3,379L67,393Z" fill="#ffac62" stroke="#ffac62" stroke-width="1.51"/><path d="M50,-8L7,18L68,70Z" fill="#ffe896" stroke="#ffe896" stroke-width="1.51"/><path d="M15,602L61,649L62,581Z" fill="#dd8558" stroke="#dd8558" stroke-width="1.51"/><path d="M56,209L5,255L63,269Z" fill="#ffc56c" stroke="#ffc56c" stroke-width="1.51"/><path d="M18,442L43,450L67,393Z" fill="#ff9b5a" stroke="#ff9b5a" stroke-width="1.51"/><path d="M-3,379L18,442L67,393Z" fill="#ffa15f" stroke="#ffa15f" stroke-width="1.51"/><path d="M51,109L13,109L68,164Z" fill="#ffdb80" stroke="#ffdb80" stroke-width="1.51"/><path d="M-23,154L56,209L68,164Z" fill="#ffd377" stroke="#ffd377" stroke-width="1.51"/><path d="M13,109L-23,154L68,164Z" fill="#ffdb82" stroke="#ffdb82" stroke-width="1.51"/><path d="M7,18L4,56L68,70Z" fill="#ffe795" stroke="#ffe795" stroke-width="1.51"/><path d="M4,56L51,109L68,70Z" fill="#ffe38b" stroke="#ffe38b" stroke-width="1.51"/><path d="M4,56L13,109L51,109Z" fill="#ffe38c" stroke="#ffe38c" stroke-width="1.51"/><path d="M-18,327L-3,379L45,307Z" fill="#ffb46a" stroke="#ffb46a" stroke-width="1.51"/><path d="M43,450L-20,481L60,507Z" fill="#fa9559" stroke="#fa9559" stroke-width="1.51"/><path d="M43,528L15,602L62,581Z" fill="#e88a58" stroke="#e88a58" stroke-width="1.51"/><path d="M5,255L45,307L63,269Z" fill="#ffbf6a" stroke="#ffbf6a" stroke-width="1.51"/><path d="M-20,481L43,528L60,507Z" fill="#f69258" stroke="#f69258" stroke-width="1.51"/><path d="M15,602L-2,668L61,649Z" fill="#d3845c" stroke="#d3845c" stroke-width="1.51"/><path d="M-15,542L15,602L43,528Z" fill="#ec8e5d" stroke="#ec8e5d" stroke-width="1.51"/><path d="M18,442L-20,481L43,450Z" fill="#fd995d" stroke="#fd995d" stroke-width="1.51"/><path d="M-18,235L5,255L56,209Z" fill="#ffca73" stroke="#ffca73" stroke-width="1.51"/><path d="M-23,154L-18,235L56,209Z" fill="#ffd179" stroke="#ffd179" stroke-width="1.51"/><path d="M33,-66L8,-72L50,-8Z" fill="#fff0aa" stroke="#fff0aa" stroke-width="1.51"/><path d="M8,-72L7,18L50,-8Z" fill="#ffefa5" stroke="#ffefa5" stroke-width="1.51"/><path d="M-20,481L-15,542L43,528Z" fill="#f5935e" stroke="#f5935e" stroke-width="1.51"/><path d="M5,255L-18,327L45,307Z" fill="#ffbe6e" stroke="#ffbe6e" stroke-width="1.51"/><path d="M-46,290L-18,327L5,255Z" fill="#ffc376" stroke="#ffc376" stroke-width="1.51"/><path d="M-68,6L7,18L8,-72Z" fill="#fff2ad" stroke="#fff2ad" stroke-width="1.51"/><path d="M-72,-63L-68,6L8,-72Z" fill="#fff7b9" stroke="#fff7b9" stroke-width="1.51"/><path d="M4,56L-42,53L13,109Z" fill="#ffe897" stroke="#ffe897" stroke-width="1.51"/><path d="M-42,53L-50,118L13,109Z" fill="#ffe897" stroke="#ffe897" stroke-width="1.51"/><path d="M-15,542L-52,550L15,602Z" fill="#eb9064" stroke="#eb9064" stroke-width="1.51"/><path d="M-41,638L-2,668L15,602Z" fill="#d58863" stroke="#d58863" stroke-width="1.51"/><path d="M-3,379L-38,435L18,442Z" fill="#ffa266" stroke="#ffa266" stroke-width="1.51"/><path d="M-38,435L-20,481L18,442Z" fill="#ff9d64" stroke="#ff9d64" stroke-width="1.51"/><path d="M-23,154L-50,162L-18,235Z" fill="#ffd784" stroke="#ffd784" stroke-width="1.51"/><path d="M-50,118L-23,154L13,109Z" fill="#ffe28e" stroke="#ffe28e" stroke-width="1.51"/><path d="M-55,621L-41,638L15,602Z" fill="#db8b67" stroke="#db8b67" stroke-width="1.51"/><path d="M-52,550L-55,621L15,602Z" fill="#e68f68" stroke="#e68f68" stroke-width="1.51"/><path d="M-50,162L-51,228L-18,235Z" fill="#ffd381" stroke="#ffd381" stroke-width="1.51"/><path d="M-42,53L4,56L7,18Z" fill="#ffec9f" stroke="#ffec9f" stroke-width="1.51"/><path d="M-18,235L-46,290L5,255Z" fill="#ffc879" stroke="#ffc879" stroke-width="1.51"/><path d="M-68,6L-42,53L7,18Z" fill="#ffefa8" stroke="#ffefa8" stroke-width="1.51"/><path d="M-20,481L-64,495L-15,542Z" fill="#f89765" stroke="#f89765" stroke-width="1.51"/><path d="M-75,380L-38,435L-3,379Z" fill="#ffa86e" stroke="#ffa86e" stroke-width="1.51"/><path d="M-18,327L-50,330L-3,379Z" fill="#ffb571" stroke="#ffb571" stroke-width="1.51"/><path d="M-50,330L-75,380L-3,379Z" fill="#ffb273" stroke="#ffb273" stroke-width="1.51"/><path d="M-51,228L-46,290L-18,235Z" fill="#ffcb7e" stroke="#ffcb7e" stroke-width="1.51"/><path d="M-46,290L-50,330L-18,327Z" fill="#ffbe77" stroke="#ffbe77" stroke-width="1.51"/><path d="M-64,495L-52,550L-15,542Z" fill="#f39668" stroke="#f39668" stroke-width="1.51"/><path d="M-38,435L-64,495L-20,481Z" fill="#fe9d68" stroke="#fe9d68" stroke-width="1.51"/><path d="M-50,118L-50,162L-23,154Z" fill="#ffe08f" stroke="#ffe08f" stroke-width="1.51"/><path d="M-75,380L-64,495L-38,435Z" fill="#ffa46f" stroke="#ffa46f" stroke-width="1.51"/><path d="M-68,6L-50,118L-42,53Z" fill="#ffeea5" stroke="#ffeea5" stroke-width="1.51"/><path d="M-75,380L-50,330L-46,290Z" fill="#ffbb79" stroke="#ffbb79" stroke-width="1.51"/><path d="M-51,228L-75,380L-46,290Z" fill="#ffc47d" stroke="#ffc47d" stroke-width="1.51"/><path d="M-64,495L-75,380L-55,621Z" fill="#fb9b6c" stroke="#fb9b6c" stroke-width="1.51"/><path d="M-75,380L-51,228L-50,162Z" fill="#ffcc82" stroke="#ffcc82" stroke-width="1.51"/><path d="M-68,6L-75,380L-50,162Z" fill="#ffdb8c" stroke="#ffdb8c" stroke-width="1.51"/><path d="M-68,6L-50,162L-50,118Z" fill="#ffeb9d" stroke="#ffeb9d" stroke-width="1.51"/><path d="M-64,495L-55,621L-52,550Z" fill="#ee956c" stroke="#ee956c" stroke-width="1.51"/><path d="M-72,-63L-75,380L-68,6Z" fill="#ffea9e" stroke="#ffea9e" stroke-width="1.51"/></svg>